<svg xmlns="http://www.w3.org/2000/svg" xmlns:xlink="http://www.w3.org/1999/xlink" width="500" zoomAndPan="magnify" viewBox="0 0 375 172.499995" height="230" preserveAspectRatio="xMidYMid meet" version="1.0"><defs><clipPath id="ee2898b835"><path d="M 0.542969 0 L 374.457031 0 L 374.457031 172 L 0.542969 172 Z M 0.542969 0 " clip-rule="nonzero"/></clipPath><clipPath id="e7b267e3de"><path d="M 294.347656 93.054688 L 373.59375 93.054688 L 373.59375 171.917969 L 294.347656 171.917969 Z M 294.347656 93.054688 " clip-rule="nonzero"/></clipPath><clipPath id="4a4332151a"><path d="M 0.542969 0 L 179.484375 0 L 179.484375 171.539062 L 0.542969 171.539062 Z M 0.542969 0 " clip-rule="nonzero"/></clipPath><clipPath id="fe282481d2"><path d="M 141.667969 0 L 320.609375 0 L 320.609375 171.539062 L 141.667969 171.539062 Z M 141.667969 0 " clip-rule="nonzero"/></clipPath><clipPath id="12f50a8251"><rect x="0" width="375" y="0" height="172"/></clipPath></defs><g clip-path="url(#ee2898b835)"><g transform="matrix(1, 0, 0, 1, 0.000000000000000111, 0)"><g clip-path="url(#12f50a8251)"><g clip-path="url(#e7b267e3de)"><path fill="#0281fe" d="M 341.730469 -102.894531 L 913.515625 -102.894531 C 915.070312 -102.894531 916.617188 -102.816406 918.160156 -102.664062 C 919.707031 -102.511719 921.238281 -102.285156 922.761719 -101.984375 C 924.28125 -101.679688 925.785156 -101.304688 927.269531 -100.851562 C 928.753906 -100.402344 930.214844 -99.878906 931.648438 -99.285156 C 933.082031 -98.691406 934.484375 -98.03125 935.851562 -97.296875 C 937.222656 -96.566406 938.550781 -95.769531 939.839844 -94.90625 C 941.128906 -94.046875 942.375 -93.121094 943.574219 -92.136719 C 944.773438 -91.152344 945.921875 -90.113281 947.019531 -89.015625 C 948.117188 -87.917969 949.160156 -86.769531 950.144531 -85.570312 C 951.128906 -84.371094 952.050781 -83.125 952.914062 -81.835938 C 953.773438 -80.546875 954.570312 -79.214844 955.304688 -77.847656 C 956.035156 -76.476562 956.699219 -75.078125 957.292969 -73.644531 C 957.886719 -72.210938 958.40625 -70.75 958.859375 -69.265625 C 959.308594 -67.78125 959.683594 -66.277344 959.988281 -64.753906 C 960.289062 -63.234375 960.519531 -61.699219 960.671875 -60.15625 C 960.824219 -58.609375 960.898438 -57.0625 960.898438 -55.511719 L 960.898438 124.394531 C 960.898438 125.949219 960.824219 127.496094 960.671875 129.039062 C 960.519531 130.585938 960.289062 132.117188 959.988281 133.640625 C 959.683594 135.160156 959.308594 136.664062 958.859375 138.148438 C 958.40625 139.636719 957.886719 141.09375 957.292969 142.527344 C 956.699219 143.960938 956.035156 145.363281 955.304688 146.730469 C 954.570312 148.101562 953.773438 149.429688 952.914062 150.71875 C 952.050781 152.011719 951.128906 153.253906 950.144531 154.453125 C 949.160156 155.652344 948.117188 156.800781 947.019531 157.898438 C 945.921875 158.996094 944.773438 160.039062 943.574219 161.023438 C 942.375 162.007812 941.128906 162.929688 939.839844 163.792969 C 938.550781 164.65625 937.222656 165.453125 935.851562 166.183594 C 934.484375 166.914062 933.082031 167.578125 931.648438 168.171875 C 930.214844 168.765625 928.753906 169.285156 927.269531 169.738281 C 925.785156 170.1875 924.28125 170.5625 922.761719 170.867188 C 921.238281 171.171875 919.707031 171.398438 918.160156 171.550781 C 916.617188 171.703125 915.070312 171.777344 913.515625 171.777344 L 341.730469 171.777344 C 340.179688 171.777344 338.632812 171.703125 337.085938 171.550781 C 335.542969 171.398438 334.007812 171.171875 332.488281 170.867188 C 330.964844 170.566406 329.460938 170.1875 327.976562 169.738281 C 326.492188 169.285156 325.03125 168.765625 323.597656 168.171875 C 322.164062 167.578125 320.765625 166.914062 319.394531 166.183594 C 318.027344 165.453125 316.699219 164.65625 315.40625 163.792969 C 314.117188 162.929688 312.871094 162.007812 311.671875 161.023438 C 310.472656 160.039062 309.324219 158.996094 308.226562 157.898438 C 307.128906 156.800781 306.089844 155.652344 305.105469 154.453125 C 304.121094 153.253906 303.195312 152.011719 302.335938 150.71875 C 301.472656 149.429688 300.675781 148.101562 299.945312 146.730469 C 299.210938 145.363281 298.550781 143.960938 297.957031 142.527344 C 297.363281 141.09375 296.839844 139.636719 296.390625 138.148438 C 295.9375 136.664062 295.5625 135.160156 295.261719 133.640625 C 294.957031 132.117188 294.730469 130.585938 294.578125 129.039062 C 294.425781 127.496094 294.347656 125.949219 294.347656 124.394531 L 294.347656 -55.511719 C 294.347656 -57.0625 294.425781 -58.609375 294.578125 -60.15625 C 294.730469 -61.699219 294.957031 -63.234375 295.261719 -64.753906 C 295.5625 -66.277344 295.9375 -67.78125 296.390625 -69.265625 C 296.839844 -70.75 297.363281 -72.210938 297.957031 -73.644531 C 298.550781 -75.078125 299.210938 -76.476562 299.945312 -77.847656 C 300.675781 -79.214844 301.472656 -80.546875 302.335938 -81.835938 C 303.195312 -83.125 304.121094 -84.371094 305.105469 -85.570312 C 306.089844 -86.769531 307.128906 -87.917969 308.226562 -89.015625 C 309.324219 -90.113281 310.472656 -91.152344 311.671875 -92.136719 C 312.871094 -93.121094 314.117188 -94.046875 315.40625 -94.90625 C 316.699219 -95.769531 318.027344 -96.566406 319.394531 -97.296875 C 320.765625 -98.03125 322.164062 -98.691406 323.597656 -99.285156 C 325.03125 -99.878906 326.492188 -100.402344 327.976562 -100.851562 C 329.460938 -101.304688 330.964844 -101.679688 332.488281 -101.984375 C 334.007812 -102.285156 335.542969 -102.511719 337.085938 -102.664062 C 338.632812 -102.816406 340.179688 -102.894531 341.730469 -102.894531 Z M 341.730469 -102.894531 " fill-opacity="1" fill-rule="nonzero"/></g><g clip-path="url(#4a4332151a)"><path fill="#010101" d="M 7.621094 171.957031 C -3.878906 171.976562 -15.261719 170.851562 -26.535156 168.574219 C -37.804688 166.296875 -48.734375 162.917969 -59.324219 158.4375 C -69.535156 154.121094 -79.238281 148.863281 -88.433594 142.664062 C -97.625 136.464844 -106.136719 129.441406 -113.964844 121.589844 C -121.816406 113.761719 -128.839844 105.25 -135.039062 96.054688 C -141.234375 86.863281 -146.492188 77.160156 -150.804688 66.945312 C -155.289062 56.359375 -158.667969 45.425781 -160.949219 34.15625 C -163.226562 22.882812 -164.355469 11.5 -164.335938 0 L -101.039062 0 C -101.046875 3.558594 -100.882812 7.113281 -100.539062 10.65625 C -100.199219 14.199219 -99.683594 17.71875 -98.992188 21.210938 C -98.304688 24.703125 -97.445312 28.152344 -96.414062 31.558594 C -95.382812 34.96875 -94.183594 38.316406 -92.820312 41.605469 C -91.460938 44.894531 -89.9375 48.109375 -88.257812 51.246094 C -86.578125 54.386719 -84.746094 57.433594 -82.765625 60.390625 C -80.78125 63.347656 -78.660156 66.199219 -76.394531 68.949219 C -74.132812 71.695312 -71.738281 74.324219 -69.214844 76.835938 C -67.957031 78.089844 -66.667969 79.316406 -65.351562 80.511719 C -64.03125 81.703125 -62.6875 82.867188 -61.3125 83.992188 C -59.9375 85.121094 -58.535156 86.214844 -57.105469 87.273438 C -55.679688 88.332031 -54.226562 89.355469 -52.746094 90.34375 C -51.269531 91.332031 -49.765625 92.28125 -48.242188 93.195312 C -46.714844 94.109375 -45.167969 94.988281 -43.601562 95.824219 C -42.03125 96.664062 -40.445312 97.460938 -38.835938 98.222656 C -37.226562 98.984375 -35.601562 99.703125 -33.960938 100.382812 C -32.316406 101.0625 -30.660156 101.703125 -28.984375 102.300781 C -27.308594 102.902344 -25.621094 103.457031 -23.921875 103.976562 C -22.21875 104.492188 -20.503906 104.964844 -18.78125 105.398438 C -17.054688 105.828125 -15.320312 106.21875 -13.578125 106.566406 C -11.832031 106.914062 -10.082031 107.214844 -8.324219 107.476562 C -6.5625 107.738281 -4.800781 107.957031 -3.03125 108.128906 C -1.261719 108.304688 0.511719 108.433594 2.289062 108.523438 C 4.066406 108.609375 5.84375 108.652344 7.621094 108.652344 C 9.398438 108.652344 11.175781 108.609375 12.953125 108.523438 C 14.726562 108.433594 16.5 108.304688 18.269531 108.128906 C 20.039062 107.957031 21.804688 107.738281 23.5625 107.476562 C 25.324219 107.214844 27.074219 106.914062 28.816406 106.566406 C 30.5625 106.21875 32.296875 105.828125 34.023438 105.398438 C 35.746094 104.964844 37.460938 104.492188 39.160156 103.976562 C 40.863281 103.457031 42.550781 102.902344 44.226562 102.300781 C 45.898438 101.703125 47.558594 101.0625 49.203125 100.382812 C 50.84375 99.703125 52.46875 98.984375 54.078125 98.222656 C 55.683594 97.460938 57.273438 96.664062 58.839844 95.824219 C 60.410156 94.988281 61.957031 94.109375 63.480469 93.195312 C 65.007812 92.28125 66.507812 91.332031 67.988281 90.34375 C 69.464844 89.355469 70.917969 88.332031 72.347656 87.273438 C 73.777344 86.214844 75.179688 85.121094 76.554688 83.992188 C 77.925781 82.867188 79.273438 81.703125 80.589844 80.511719 C 81.910156 79.316406 83.195312 78.089844 84.453125 76.835938 C 86.980469 74.324219 89.371094 71.695312 91.636719 68.949219 C 93.902344 66.199219 96.023438 63.347656 98.007812 60.390625 C 99.988281 57.433594 101.820312 54.386719 103.5 51.246094 C 105.179688 48.109375 106.699219 44.894531 108.0625 41.605469 C 109.425781 38.316406 110.621094 34.96875 111.652344 31.558594 C 112.683594 28.152344 113.542969 24.703125 114.234375 21.210938 C 114.925781 17.71875 115.441406 14.199219 115.78125 10.65625 C 116.125 7.113281 116.289062 3.558594 116.277344 0 L 179.578125 0 C 179.597656 11.5 178.46875 22.882812 176.191406 34.152344 C 173.914062 45.425781 170.535156 56.355469 166.050781 66.941406 C 161.738281 77.15625 156.480469 86.859375 150.28125 96.054688 C 144.085938 105.246094 137.058594 113.757812 129.210938 121.585938 C 121.382812 129.4375 112.871094 136.464844 103.675781 142.664062 C 94.480469 148.863281 84.777344 154.121094 74.5625 158.4375 C 63.976562 162.917969 53.046875 166.296875 41.773438 168.574219 C 30.503906 170.851562 19.117188 171.976562 7.621094 171.957031 Z M 7.621094 171.957031 " fill-opacity="1" fill-rule="nonzero"/></g><g clip-path="url(#fe282481d2)"><path fill="#010101" d="M 148.746094 171.957031 C 137.246094 171.976562 125.863281 170.851562 114.589844 168.574219 C 103.320312 166.296875 92.390625 162.917969 81.800781 158.4375 C 71.589844 154.121094 61.886719 148.863281 52.691406 142.664062 C 43.5 136.464844 34.988281 129.441406 27.15625 121.589844 C 19.308594 113.761719 12.285156 105.25 6.085938 96.054688 C -0.109375 86.863281 -5.367188 77.160156 -9.679688 66.945312 C -14.164062 56.359375 -17.546875 45.425781 -19.824219 34.15625 C -22.101562 22.882812 -23.230469 11.5 -23.210938 0 L 40.085938 0 C 40.078125 3.558594 40.242188 7.113281 40.585938 10.65625 C 40.925781 14.199219 41.441406 17.71875 42.132812 21.210938 C 42.820312 24.703125 43.679688 28.152344 44.710938 31.558594 C 45.742188 34.96875 46.941406 38.316406 48.300781 41.605469 C 49.664062 44.894531 51.1875 48.109375 52.867188 51.246094 C 54.546875 54.386719 56.378906 57.433594 58.359375 60.390625 C 60.339844 63.347656 62.464844 66.199219 64.730469 68.949219 C 66.992188 71.695312 69.386719 74.324219 71.910156 76.835938 C 73.167969 78.089844 74.457031 79.316406 75.773438 80.511719 C 77.09375 81.703125 78.4375 82.867188 79.8125 83.992188 C 81.1875 85.121094 82.589844 86.214844 84.019531 87.273438 C 85.445312 88.332031 86.898438 89.355469 88.378906 90.34375 C 89.855469 91.332031 91.359375 92.28125 92.882812 93.195312 C 94.410156 94.109375 95.957031 94.988281 97.523438 95.824219 C 99.09375 96.664062 100.679688 97.460938 102.289062 98.222656 C 103.894531 98.984375 105.519531 99.703125 107.164062 100.382812 C 108.808594 101.0625 110.464844 101.703125 112.140625 102.300781 C 113.8125 102.902344 115.503906 103.457031 117.203125 103.976562 C 118.90625 104.492188 120.617188 104.964844 122.34375 105.398438 C 124.070312 105.828125 125.804688 106.21875 127.546875 106.566406 C 129.292969 106.914062 131.042969 107.214844 132.800781 107.476562 C 134.5625 107.738281 136.324219 107.957031 138.09375 108.128906 C 139.863281 108.304688 141.636719 108.433594 143.414062 108.523438 C 145.191406 108.609375 146.96875 108.652344 148.746094 108.652344 C 150.523438 108.652344 152.300781 108.609375 154.078125 108.523438 C 155.851562 108.433594 157.625 108.304688 159.394531 108.128906 C 161.164062 107.957031 162.929688 107.738281 164.6875 107.476562 C 166.445312 107.214844 168.199219 106.914062 169.941406 106.566406 C 171.6875 106.21875 173.421875 105.828125 175.144531 105.398438 C 176.871094 104.964844 178.585938 104.492188 180.285156 103.976562 C 181.988281 103.457031 183.675781 102.902344 185.351562 102.300781 C 187.023438 101.703125 188.683594 101.0625 190.324219 100.382812 C 191.96875 99.703125 193.59375 98.984375 195.203125 98.222656 C 196.808594 97.460938 198.398438 96.664062 199.964844 95.824219 C 201.535156 94.988281 203.082031 94.109375 204.605469 93.195312 C 206.132812 92.28125 207.632812 91.332031 209.113281 90.34375 C 210.589844 89.355469 212.042969 88.332031 213.472656 87.273438 C 214.902344 86.214844 216.300781 85.121094 217.675781 83.992188 C 219.050781 82.867188 220.398438 81.703125 221.714844 80.511719 C 223.035156 79.316406 224.320312 78.089844 225.578125 76.835938 C 228.101562 74.324219 230.496094 71.695312 232.761719 68.949219 C 235.027344 66.199219 237.148438 63.347656 239.128906 60.390625 C 241.113281 57.433594 242.945312 54.386719 244.625 51.246094 C 246.304688 48.109375 247.824219 44.894531 249.1875 41.605469 C 250.550781 38.316406 251.746094 34.96875 252.777344 31.558594 C 253.808594 28.152344 254.667969 24.703125 255.359375 21.210938 C 256.050781 17.71875 256.566406 14.199219 256.90625 10.65625 C 257.246094 7.113281 257.414062 3.558594 257.402344 0 L 320.703125 0 C 320.722656 11.5 319.59375 22.882812 317.316406 34.152344 C 315.039062 45.425781 311.660156 56.355469 307.175781 66.941406 C 302.859375 77.15625 297.605469 86.859375 291.40625 96.054688 C 285.210938 105.246094 278.183594 113.757812 270.335938 121.585938 C 262.503906 129.4375 253.992188 136.464844 244.800781 142.664062 C 235.605469 148.863281 225.902344 154.121094 215.6875 158.4375 C 205.101562 162.917969 194.167969 166.296875 182.898438 168.574219 C 171.628906 170.851562 160.242188 171.976562 148.746094 171.957031 Z M 148.746094 171.957031 " fill-opacity="1" fill-rule="nonzero"/></g></g></g></g></svg>